<svg xmlns="http://www.w3.org/2000/svg" width="32" height="32" viewBox="0 0 32 32">
    <!-- Фон -->
    <rect width="32" height="32" rx="8" fill="#0a192f"/>
    
    <!-- Левая фигурная скобка -->
    <path d="M14 8c-2 0-3 1-3 3v2c0 1.5-1 2-2 2v2c1 0 2 .5 2 2v2c0 2 1 3 3 3" 
          stroke="#64ffda" 
          fill="none" 
          stroke-width="2" 
          stroke-linecap="round"/>
    
    <!-- Правая фигурная скобка -->
    <path d="M18 8c2 0 3 1 3 3v2c0 1.5 1 2 2 2v2c-1 0-2 .5-2 2v2c0 2-1 3-3 3" 
          stroke="#64ffda" 
          fill="none" 
          stroke-width="2" 
          stroke-linecap="round"/>
</svg> 